<?xml version="1.0" encoding="utf-8"?>
<!-- Generator: Adobe Illustrator 25.2.1, SVG Export Plug-In . SVG Version: 6.00 Build 0)  -->
<svg version="1.1" id="Layer_1" xmlns="http://www.w3.org/2000/svg" xmlns:xlink="http://www.w3.org/1999/xlink" x="0px" y="0px"
	 viewBox="300 300 120 100" style="enable-background:new 0 0 720 720;" xml:space="preserve">
<style type="text/css">
	.st0{fill:#FFFFFF;stroke:#000000;stroke-miterlimit:10;}
</style>
<g>
	<path class="st0" d="M304.52,357.57c0-1.97,1.59-3.56,3.56-3.56h11.6l5.14-18.33h21.89v34.42h64.62v10.81h-12.92
		c0,0-0.13-6.46-8.97-6.46s-9.1,6.46-9.1,6.46h-44.84c-2.48-10.12-7.66-14.91-10.57-16.89c-1.14-0.77-2.47-1.18-3.84-1.18h-16.58
		V357.57z M327.59,338.45l-4.22,15.96h20.31v-15.96H327.59z"/>
	<path class="st0" d="M304.52,365.22h15.74c1.3,0,2.56,0.44,3.56,1.27c2.6,2.15,7.38,7.01,8.59,14.42h-6.63c0,0-0.59-6.69-9.4-6.69
		c-8.8,0-9.2,6.69-9.2,6.69h-2.67V365.22z"/>
	<path class="st0" d="M326.9,389c0,5.63-4.56,10.19-10.19,10.19c-5.63,0-10.19-4.56-10.19-10.19c0-5.63,4.56-10.19,10.19-10.19
		C322.34,378.81,326.9,383.37,326.9,389z M316.71,383.86c-2.84,0-5.14,2.3-5.14,5.14c0,2.84,2.3,5.14,5.14,5.14
		c2.84,0,5.14-2.3,5.14-5.14C321.86,386.16,319.55,383.86,316.71,383.86z"/>
	<path class="st0" d="M399.37,389c0,5.63-4.56,10.19-10.19,10.19c-5.63,0-10.19-4.56-10.19-10.19c0-5.63,4.56-10.19,10.19-10.19
		C394.81,378.81,399.37,383.37,399.37,389z M389.18,383.86c-2.84,0-5.14,2.3-5.14,5.14c0,2.84,2.3,5.14,5.14,5.14
		c2.84,0,5.14-2.3,5.14-5.14C394.33,386.16,392.03,383.86,389.18,383.86z"/>
	<path class="st0" d="M348.92,321.41v47.08h17.31v-46.97c0-0.16-0.21-0.22-0.29-0.09c-0.58,0.93-2.2,2.57-6.33,2.35
		c-5.74-0.3-6.82-2.97-6.82-2.97h-3.26C349.19,320.81,348.92,321.08,348.92,321.41z"/>
	<path class="st0" d="M368.21,321.98c0-0.13,0.13-0.21,0.25-0.15c0.9,0.45,4.12,1.94,6.97,1.85c2.67-0.08,4.9-1.28,5.71-1.77
		c0.14-0.09,0.32,0.02,0.32,0.19v46.38h-13.25V321.98z"/>
	<path class="st0" d="M383.54,321.89v46.6h12.96v-46.56c0-0.04-0.05-0.06-0.08-0.04c-0.44,0.41-2.73,2.35-6.4,1.99
		c-3.74-0.36-6.04-1.78-6.42-2.03C383.57,321.83,383.54,321.86,383.54,321.89z"/>
	<path class="st0" d="M398.47,321.92v46.56h17.01v-46.65c0-0.56-0.45-1.02-1.02-1.02h0c-1.62,0-3.19,0.5-4.54,1.39
		c-1.39,0.92-3.39,1.94-5.33,1.77c-3.16-0.27-5.66-1.83-6.07-2.1C398.5,321.87,398.47,321.89,398.47,321.92z"/>
</g>
</svg>
